<?xml version="1.0" encoding="UTF-8" standalone="no"?>
<!-- Created with Inkscape (http://www.inkscape.org/) -->

<svg
   xmlns:dc="http://purl.org/dc/elements/1.1/"
   xmlns:cc="http://creativecommons.org/ns#"
   xmlns:rdf="http://www.w3.org/1999/02/22-rdf-syntax-ns#"
   xmlns:svg="http://www.w3.org/2000/svg"
   xmlns="http://www.w3.org/2000/svg"
   xmlns:sodipodi="http://sodipodi.sourceforge.net/DTD/sodipodi-0.dtd"
   xmlns:inkscape="http://www.inkscape.org/namespaces/inkscape"
   width="53.915054mm"
   height="54.52277mm"
   viewBox="0 0 53.915054 54.52277"
   version="1.1"
   id="svg8"
   inkscape:version="0.92.5 (2060ec1f9f, 2020-04-08)"
   sodipodi:docname="left.svg"
   inkscape:export-filename="/home/comradedoggo/Desktop/right.png"
   inkscape:export-xdpi="96"
   inkscape:export-ydpi="96">
  <defs
     id="defs2" />
  <sodipodi:namedview
     id="base"
     pagecolor="#ffffff"
     bordercolor="#666666"
     borderopacity="1.0"
     inkscape:pageopacity="0.0"
     inkscape:pageshadow="2"
     inkscape:zoom="1.979899"
     inkscape:cx="187.3811"
     inkscape:cy="59.081527"
     inkscape:document-units="mm"
     inkscape:current-layer="layer1"
     showgrid="false"
     inkscape:window-width="1920"
     inkscape:window-height="1031"
     inkscape:window-x="0"
     inkscape:window-y="25"
     inkscape:window-maximized="1"
     fit-margin-top="0"
     fit-margin-left="0"
     fit-margin-right="0"
     fit-margin-bottom="0" />
  <metadata
     id="metadata5">
    <rdf:RDF>
      <cc:Work
         rdf:about="">
        <dc:format>image/svg+xml</dc:format>
        <dc:type
           rdf:resource="http://purl.org/dc/dcmitype/StillImage" />
        <dc:title></dc:title>
      </cc:Work>
    </rdf:RDF>
  </metadata>
  <g
     inkscape:label="Layer 1"
     inkscape:groupmode="layer"
     id="layer1"
     transform="translate(-2.3676511,-2.398143)">
    <path
       style="fill:#ffff00;stroke-width:0.26458332"
       d="M 28.486471,2.398143 A 27.796029,27.261492 0 0 1 56.282707,29.659528 27.796029,27.261492 0 0 1 28.486471,56.920912 27.796029,27.261492 0 0 1 3.4420051,41.406613 L 5.1364731,42.536262 29.705001,31.952929 3.0575311,20.046679 2.3676511,20.406346 A 27.796029,27.261492 0 0 1 28.486471,2.398143 Z"
       id="path3713"
       inkscape:connector-curvature="0"
       inkscape:export-filename="/home/comradedoggo/Загрузки/1111.png"
       inkscape:export-xdpi="96"
       inkscape:export-ydpi="96" />
    <ellipse
       style="fill:#ffffff;stroke-width:0.42047644"
       id="path3718"
       cx="-31.722954"
       cy="15.164285"
       rx="7.9512682"
       ry="7.3499122"
       inkscape:export-filename="/home/comradedoggo/Загрузки/1111.png"
       inkscape:export-xdpi="96"
       inkscape:export-ydpi="96"
       transform="scale(-1,1)" />
    <path
       style="fill:#ffcc00;stroke-width:0.16885427"
       d="m 25.76158,19.727923 0.01447,0.247015 h 12.134141 a 6.1471992,2.3386085 0 0 1 0.02687,0.200504 6.1471992,2.3386085 0 0 1 -6.147429,2.338874 6.1471992,2.3386085 0 0 1 -6.146911,-2.338874 6.1471992,2.3386085 0 0 1 0.118856,-0.447519 z"
       id="path3720"
       inkscape:connector-curvature="0"
       inkscape:export-filename="/home/comradedoggo/Загрузки/1111.png"
       inkscape:export-xdpi="96"
       inkscape:export-ydpi="96" />
    <path
       style="fill:#ffcc00;stroke-width:0.16885427"
       d="m 37.837501,10.457037 -0.01802,-0.246781 -12.132885,0.174583 a 2.3386085,6.1471993 89.175616 0 1 -0.02975,-0.200097 2.3386085,6.1471993 89.175616 0 1 6.113142,-2.4270802 2.3386085,6.1471993 89.175616 0 1 6.179926,2.2501922 2.3386085,6.1471993 89.175616 0 1 -0.112405,0.449183 z"
       id="path3720-3"
       inkscape:connector-curvature="0"
       inkscape:export-filename="/home/comradedoggo/Загрузки/1111.png"
       inkscape:export-xdpi="96"
       inkscape:export-ydpi="96" />
    <ellipse
       style="fill:#241c1c;stroke-width:0.30239049"
       id="path3761"
       cx="-27.379827"
       cy="15.2311"
       rx="4.1426778"
       ry="4.8776689"
       inkscape:export-filename="/home/comradedoggo/Загрузки/1111.png"
       inkscape:export-xdpi="96"
       inkscape:export-ydpi="96"
       transform="scale(-1,1)" />
    <ellipse
       style="fill:#ffffff;stroke-width:0.26458332"
       id="path3763"
       cx="-28.716171"
       cy="13.226578"
       rx="1.2027128"
       ry="1.403165"
       inkscape:export-filename="/home/comradedoggo/Загрузки/1111.png"
       inkscape:export-xdpi="96"
       inkscape:export-ydpi="96"
       transform="scale(-1,1)" />
    <ellipse
       style="fill:#ffffff;stroke-width:0.13608697"
       id="path3763-6"
       cx="-27.379822"
       cy="14.963832"
       rx="0.66817373"
       ry="0.66817379"
       inkscape:export-filename="/home/comradedoggo/Загрузки/1111.png"
       inkscape:export-xdpi="96"
       inkscape:export-ydpi="96"
       transform="scale(-1,1)" />
  </g>
</svg>
