<?xml version="1.0" encoding="UTF-8" standalone="no"?>
<!-- Created with Inkscape (http://www.inkscape.org/) -->

<svg
   xmlns:dc="http://purl.org/dc/elements/1.1/"
   xmlns:cc="http://creativecommons.org/ns#"
   xmlns:rdf="http://www.w3.org/1999/02/22-rdf-syntax-ns#"
   xmlns:svg="http://www.w3.org/2000/svg"
   xmlns="http://www.w3.org/2000/svg"
   xmlns:sodipodi="http://sodipodi.sourceforge.net/DTD/sodipodi-0.dtd"
   xmlns:inkscape="http://www.inkscape.org/namespaces/inkscape"
   width="53.915054mm"
   height="54.52277mm"
   viewBox="0 0 53.915054 54.52277"
   version="1.1"
   id="svg8"
   inkscape:version="0.92.5 (2060ec1f9f, 2020-04-08)"
   sodipodi:docname="top.svg"
   inkscape:export-filename="/home/comradedoggo/Desktop/right.png"
   inkscape:export-xdpi="96"
   inkscape:export-ydpi="96">
  <defs
     id="defs2" />
  <sodipodi:namedview
     id="base"
     pagecolor="#ffffff"
     bordercolor="#666666"
     borderopacity="1.0"
     inkscape:pageopacity="0.0"
     inkscape:pageshadow="2"
     inkscape:zoom="1.979899"
     inkscape:cx="187.3811"
     inkscape:cy="59.081527"
     inkscape:document-units="mm"
     inkscape:current-layer="layer1"
     showgrid="false"
     inkscape:window-width="1920"
     inkscape:window-height="1031"
     inkscape:window-x="0"
     inkscape:window-y="25"
     inkscape:window-maximized="1"
     fit-margin-top="0"
     fit-margin-left="0"
     fit-margin-right="0"
     fit-margin-bottom="0" />
  <metadata
     id="metadata5">
    <rdf:RDF>
      <cc:Work
         rdf:about="">
        <dc:format>image/svg+xml</dc:format>
        <dc:type
           rdf:resource="http://purl.org/dc/dcmitype/StillImage" />
        <dc:title></dc:title>
      </cc:Work>
    </rdf:RDF>
  </metadata>
  <g
     inkscape:label="Layer 1"
     inkscape:groupmode="layer"
     id="layer1"
     transform="translate(-2.3676511,-2.398143)">
    <path
       style="fill:#ffff00;stroke-width:0.26458332"
       d="M 2.0637941,28.820821 A 27.261492,27.796029 0 0 0 29.325179,56.617057 27.261492,27.796029 0 0 0 56.586564,28.820821 27.261492,27.796029 0 0 0 41.072264,3.7763551 L 42.201913,5.4708231 31.61858,30.039351 19.71233,3.3918811 20.071997,2.7020011 A 27.261492,27.796029 0 0 0 2.0637941,28.820821 Z"
       id="path3713"
       inkscape:connector-curvature="0"
       inkscape:export-filename="/home/comradedoggo/Загрузки/1111.png"
       inkscape:export-xdpi="96"
       inkscape:export-ydpi="96" />
    <ellipse
       style="fill:#ffffff;stroke-width:0.42047644"
       id="path3718"
       cx="-28.832293"
       cy="-17.221241"
       rx="7.9512682"
       ry="7.3499122"
       inkscape:export-filename="/home/comradedoggo/Загрузки/1111.png"
       inkscape:export-xdpi="96"
       inkscape:export-ydpi="96"
       transform="matrix(0.04425426,-0.9990203,-0.9990203,-0.04425426,0,0)" />
    <path
       style="fill:#ffcc00;stroke-width:0.16885427"
       d="m 11.633073,23.408666 -0.247414,0.0035 -0.536987,12.122253 a 2.3386085,6.1471992 2.5364104 0 1 -0.201497,0.01797 2.3386085,6.1471992 2.5364104 0 1 -2.0645324,-6.244912 2.3386085,6.1471992 2.5364104 0 1 2.6086094,-6.037383 2.3386085,6.1471992 2.5364104 0 1 0.441821,0.138544 z"
       id="path3720"
       inkscape:connector-curvature="0"
       inkscape:export-filename="/home/comradedoggo/Загрузки/1111.png"
       inkscape:export-xdpi="96"
       inkscape:export-ydpi="96" />
    <path
       style="fill:#ffcc00;stroke-width:0.16885427"
       d="m 20.360465,35.883032 0.247337,-0.0071 0.36252,-12.128725 a 2.3386085,6.1471993 1.7120264 0 1 0.201217,-0.02087 2.3386085,6.1471993 1.7120264 0 1 2.15417,6.214561 2.3386085,6.1471993 1.7120264 0 1 -2.521476,6.074292 2.3386085,6.1471993 1.7120264 0 1 -0.443768,-0.132173 z"
       id="path3720-3"
       inkscape:connector-curvature="0"
       inkscape:export-filename="/home/comradedoggo/Загрузки/1111.png"
       inkscape:export-xdpi="96"
       inkscape:export-ydpi="96" />
    <ellipse
       style="fill:#241c1c;stroke-width:0.30239049"
       id="path3761"
       cx="-24.489168"
       cy="-17.154427"
       rx="4.1426778"
       ry="4.8776689"
       inkscape:export-filename="/home/comradedoggo/Загрузки/1111.png"
       inkscape:export-xdpi="96"
       inkscape:export-ydpi="96"
       transform="matrix(0.04425426,-0.9990203,-0.9990203,-0.04425426,0,0)" />
    <ellipse
       style="fill:#ffffff;stroke-width:0.26458332"
       id="path3763"
       cx="-25.825512"
       cy="-19.158949"
       rx="1.2027128"
       ry="1.403165"
       inkscape:export-filename="/home/comradedoggo/Загрузки/1111.png"
       inkscape:export-xdpi="96"
       inkscape:export-ydpi="96"
       transform="matrix(0.04425426,-0.9990203,-0.9990203,-0.04425426,0,0)" />
    <ellipse
       style="fill:#ffffff;stroke-width:0.13608697"
       id="path3763-6"
       cx="-24.489162"
       cy="-17.421696"
       rx="0.66817373"
       ry="0.66817379"
       inkscape:export-filename="/home/comradedoggo/Загрузки/1111.png"
       inkscape:export-xdpi="96"
       inkscape:export-ydpi="96"
       transform="matrix(0.04425426,-0.9990203,-0.9990203,-0.04425426,0,0)" />
  </g>
</svg>
